<svg
      xmlns="http://www.w3.org/2000/svg"
      width="90"
      height="90"
      fill="none"
      viewBox="0 0 90 90"
    >
      <rect width="90" height="90" fill="#065F46" rx="20"></rect>
      <path
        fill="#fff"
        d="M73.442 15c-1.97 3.92-11.928 5.207-22.833 8.61-.8 2.504-.83 4.24-1.006 6.89-.6-3.135-.666-4.861-.082-6.561C36.56 28.137 22.61 35.54 19.35 54.089c0 .87-.002 2.604.87 3.473H15.87c1.257 1.25 2.069 2.063 3.398 3.061C28.522 43.248 42.38 32.537 62.296 26.1c.159-.052.323-.079.49-.083a1.751 1.751 0 01.68 3.39C42.642 37.512 30.4 50.295 23.641 63.247c2.347.759 5.544.979 7.938.383l-4.377-4.319c6.108 1.737 9.59.86 20.06-5.22 1.544-.923 6.383-3.929 11.58-8.174-5.346-.475-8.02-.087-13.4-2.405 5.336 1.098 8.324.932 14.352 1.613 9.237-7.762 19.093-19.277 13.646-30.123V15zM62.84 27.766C38.485 35.638 23.698 49.633 15 75l2.61-1.75c5.219-16.619 18.266-34.988 45.23-45.484z"
      ></path>
    </svg>